<svg xmlns="http://www.w3.org/2000/svg" viewBox="0 0 2000 800">
  <defs>
    <style>
      .cls-1 {
        fill: #151414;
        fill-rule: evenodd;
      }
    </style>
  </defs>
  <path id="TECHS_svg" class="cls-1" d="M187.186,666.359L296.121,230.617h96.807l24.258-96.807H102.4L78.138,230.617h96.919L66.121,666.359H187.186Zm440.126,0,24.258-96.807H503.216l30.322-121.064h99.839l48.4-96.807H557.8l30.21-121.064H736.248l24.258-96.807H536.57a46.656,46.656,0,0,0-34.253,14.15,50.625,50.625,0,0,0-7.749,9.883,36.234,36.234,0,0,0-5.39,8.311,56.65,56.65,0,0,0-3.931,10h-0.112L379.344,599.875h0.337a47.678,47.678,0,0,0-3.369,18.081,46.843,46.843,0,0,0,14.038,34.253,46.221,46.221,0,0,0,31.22,14.15H627.312Zm358.275,0a48.476,48.476,0,0,0,47.953-41.216,6.8,6.8,0,0,0,.34-1.123h0.11l24.26-96.807h-115l-10.557,42.339h-80.3l84.79-338.935h80.186l-13.59,54.468h115l21.11-84.678h-0.33a48.656,48.656,0,0,0,3.37-18.194,48.48,48.48,0,0,0-45.38-48.4h-211.8A46.656,46.656,0,0,0,851.5,147.96a50.549,50.549,0,0,0-7.749,9.883,36.2,36.2,0,0,0-5.391,8.311,56.648,56.648,0,0,0-3.93,10h-0.112L728.522,599.875h0.336a47.678,47.678,0,0,0-3.369,18.081,46.847,46.847,0,0,0,14.038,34.253,46.226,46.226,0,0,0,31.221,14.15H985.587Zm239.823,0,54.46-217.871h66.6v24.258l72.66-72.661-72.66-72.662v24.258h-42.34L1358.6,133.81H1237.54L1104.45,666.359h120.96Zm193.72,0,133.2-532.549H1431.26l-51.43,205.742,58.96,59.073-98.38,98.266-42.34,169.468h121.06Zm358.28,0a48.476,48.476,0,0,0,47.95-41.216,6.8,6.8,0,0,0,.34-1.123h0.11l36.39-145.21a46.474,46.474,0,0,0-14.27-34.253,52.938,52.938,0,0,0-9.2-7.412L1709.69,308.107l19.31-77.49h80.19l-13.59,54.468h115l21.11-84.678h-0.33a48.656,48.656,0,0,0,3.37-18.194,48.48,48.48,0,0,0-45.38-48.4h-211.8a46.67,46.67,0,0,0-34.26,14.15,50.347,50.347,0,0,0-7.74,9.883,35.938,35.938,0,0,0-5.39,8.311,56.283,56.283,0,0,0-3.94,10h-0.11l-33.35,133.193h0.33a47.8,47.8,0,0,0-3.36,18.081,46.46,46.46,0,0,0,14.26,34.253,27.491,27.491,0,0,0,2.13,2.134h-1.23l135.55,135.552-17.52,70.19h-78.73l12.13-48.4H1538.31v6.064l-17.97,72.662h0.34a47.6,47.6,0,0,0-3.37,18.081,46.841,46.841,0,0,0,14.04,34.253,46.211,46.211,0,0,0,31.22,14.15h214.84Z" transform="translate(-0.438 -0.078)"/>
</svg>
