<svg xmlns="http://www.w3.org/2000/svg" viewBox="0 0 2000 800">
  <defs>
    <style>
      .cls-1 {
        fill: #151414;
        fill-rule: evenodd;
      }
    </style>
  </defs>
  <path id="TECHS_svg" class="cls-1" d="M185.922,689.359L304.33,215.726H409.555L435.922,110.5H93.759L67.392,215.726H172.739L54.33,689.359H185.922Zm420.9,0,26.368-105.225H471.933l32.959-131.591h108.52l52.612-105.225H531.259L564.1,215.726H725.229L751.6,110.5H508.188a50.713,50.713,0,0,0-37.232,15.38,54.948,54.948,0,0,0-8.423,10.743,39.33,39.33,0,0,0-5.859,9.033,61.64,61.64,0,0,0-4.273,10.864h-0.122L337.289,617.093h0.366a51.839,51.839,0,0,0-3.662,19.654,50.917,50.917,0,0,0,15.259,37.231,50.234,50.234,0,0,0,33.936,15.381H606.82Zm351.929,0a52.69,52.69,0,0,0,52.121-44.8,7.021,7.021,0,0,0,.37-1.221h0.12l26.37-105.224h-125l-11.474,46.02H813.973l92.164-368.408H993.3l-14.771,59.2h125l22.95-92.041h-0.36a52.778,52.778,0,0,0,3.66-19.775,52.7,52.7,0,0,0-49.32-52.612H850.228A50.713,50.713,0,0,0,813,125.882a54.91,54.91,0,0,0-8.423,10.743,39.33,39.33,0,0,0-5.859,9.033,61.64,61.64,0,0,0-4.273,10.864H794.32L679.33,617.093H679.7a51.839,51.839,0,0,0-3.662,19.654,50.917,50.917,0,0,0,15.259,37.231,50.234,50.234,0,0,0,33.935,15.381H958.749Zm253.171,0,59.21-236.816h72.38V478.91l78.98-78.98-78.98-78.979v26.367h-46.02L1356.7,110.5H1225.11L1080.45,689.359h131.47Zm210.57,0L1567.27,110.5H1435.68l-55.91,223.632,64.09,64.209L1336.92,505.155l-46.02,184.2h131.59Zm351.93,0a52.712,52.712,0,0,0,52.13-44.8,6.976,6.976,0,0,0,.36-1.221h0.12L1866.59,485.5a50.5,50.5,0,0,0-15.51-37.232,57.061,57.061,0,0,0-10.01-8.057L1700.81,299.955l21-84.229h87.16l-14.77,59.2h125l22.95-92.041h-0.37a52.778,52.778,0,0,0,3.66-19.775,52.7,52.7,0,0,0-49.31-52.612H1665.9a50.7,50.7,0,0,0-37.23,15.38,54.555,54.555,0,0,0-8.42,10.743,39.265,39.265,0,0,0-5.86,9.033,60.871,60.871,0,0,0-4.27,10.864h-0.13L1573.74,301.3h0.36a51.858,51.858,0,0,0-3.66,19.654,50.5,50.5,0,0,0,15.51,37.231,29.526,29.526,0,0,0,2.32,2.32h-1.35L1734.26,507.84l-19.04,76.294h-85.57l13.18-52.612h-128.3v6.592L1495,617.093h0.37a51.858,51.858,0,0,0-3.66,19.654,50.887,50.887,0,0,0,15.26,37.231,50.23,50.23,0,0,0,33.93,15.381h233.52Z" transform="translate(0.108 0.078)"/>
</svg>
